<?xml version="1.0" standalone="no"?>
<!DOCTYPE svg PUBLIC "-//W3C//DTD SVG 20010904//EN"
 "http://www.w3.org/TR/2001/REC-SVG-20010904/DTD/svg10.dtd">
<svg version="1.0" xmlns="http://www.w3.org/2000/svg"
 width="700.000000pt" height="700.000000pt" viewBox="0 0 700.000000 700.000000"
 preserveAspectRatio="xMidYMid meet">
<metadata>
Created by potrace 1.14, written by Peter Selinger 2001-2017
</metadata>
<g transform="translate(0.000000,700.000000) scale(0.100000,-0.100000)"
fill="#000000" stroke="none">
<path d="M740 5518 c0 -8 5 -13 178 -197 70 -73 142 -150 161 -170 19 -20 89
-94 156 -166 68 -71 144 -152 169 -179 l46 -50 1 -1100 c1 -606 2 -1115 4
-1132 2 -30 10 -92 21 -164 20 -135 78 -309 154 -460 225 -453 705 -821 1230
-945 224 -53 368 -69 635 -69 209 0 314 7 458 30 23 4 65 12 187 39 72 15 279
91 378 137 348 164 631 419 813 735 27 46 49 86 49 89 0 2 13 31 29 64 32 65
72 187 95 290 45 198 44 163 45 1750 l1 1505 -695 0 c-382 -1 -697 -3 -700 -6
-2 -3 -5 -649 -5 -1435 -1 -966 -4 -1444 -11 -1474 -6 -25 -13 -55 -15 -68 -8
-43 -57 -137 -102 -197 -84 -112 -200 -192 -332 -230 -87 -24 -245 -29 -330
-9 -251 58 -428 254 -468 518 -6 34 -10 679 -9 1473 0 778 -3 1417 -7 1420 -9
9 -2136 10 -2136 1z"/>
</g>
</svg>
